<svg xmlns="http://www.w3.org/2000/svg" viewBox="0 0 24 24" fill="none" stroke="currentColor" stroke-width="1.6" stroke-linecap="round" stroke-linejoin="round" height="1em" width="1em">
<path d="M14.4 6.2Q12 5.7 9.6 6.2L5 4.1 4.8 9C3.3 10.1 2.5 11.8 2.5 13.6 2.5 17.5 6.7 20 12 20 17.3 20 21.5 17.5 21.5 13.6 21.5 11.9 20.8 10.5 19.4 9.4L18.9 7.8"/><ellipse fill="currentColor" stroke="none" cx="7.2" cy="12.9" rx="1" ry="1.45"/><ellipse fill="currentColor" stroke="none" cx="16.8" cy="12.9" rx="1" ry="1.45"/><ellipse fill="currentColor" stroke="none" cx="12" cy="14.9" rx="1.6" ry="1.05"/><path d="M0.9 10.9L2.8 11.5M0.6 14.1H2.6M0.9 17.3L2.8 16.7M23.1 10.9L21.2 11.5M23.4 14.1H21.4M23.1 17.3L21.2 16.7" stroke-width="1.2"/><path fill="currentColor" d="M18.4 6.2L15.3 3.5Q14.1 4.7 14.1 6.2 14.1 7.8 15.3 8.9ZM18.4 6.2L21.5 3.5Q22.7 4.7 22.7 6.2 22.7 7.8 21.5 8.9Z"/><ellipse fill="currentColor" stroke="none" cx="18.4" cy="6.2" rx="1.3" ry="1.6"/>
</svg>
